<svg id="visual" viewBox="0 0 960 540" width="960" height="540" xmlns="http://www.w3.org/2000/svg" xmlns:xlink="http://www.w3.org/1999/xlink" version="1.1"><rect x="0" y="0" width="960" height="540" fill="#020873"></rect><defs><linearGradient id="grad1_0" x1="43.8%" y1="100%" x2="100%" y2="0%"><stop offset="14.444444444444446%" stop-color="#020873" stop-opacity="1"></stop><stop offset="85.55555555555554%" stop-color="#020873" stop-opacity="1"></stop></linearGradient></defs><defs><linearGradient id="grad2_0" x1="0%" y1="100%" x2="56.3%" y2="0%"><stop offset="14.444444444444446%" stop-color="#020873" stop-opacity="1"></stop><stop offset="85.55555555555554%" stop-color="#020873" stop-opacity="1"></stop></linearGradient></defs><g transform="translate(960, 540)"><path d="M-486 0C-436.9 -47.7 -387.7 -95.3 -366.8 -151.9C-345.8 -208.5 -353 -274.1 -328.1 -328.1C-303.1 -382.1 -246 -424.6 -186 -449C-125.9 -473.4 -63 -479.7 0 -486L0 0Z" fill="#d9415d"></path></g><g transform="translate(0, 0)"><path d="M486 0C478.1 61.2 470.2 122.4 449 186C427.9 249.6 393.5 315.6 338.7 338.7C283.9 361.8 208.7 342 148.9 359.4C89 376.8 44.5 431.4 0 486L0 0Z" fill="#d9415d"></path></g></svg>