<svg id="visual" viewBox="0 0 900 600" width="900" height="600" xmlns="http://www.w3.org/2000/svg" xmlns:xlink="http://www.w3.org/1999/xlink" version="1.1"><path d="M0 115L13.7 113C27.3 111 54.7 107 82 112C109.3 117 136.7 131 163.8 134C191 137 218 129 245.2 127C272.3 125 299.7 129 327 149C354.3 169 381.7 205 409 201C436.3 197 463.7 153 491 136C518.3 119 545.7 129 573 132C600.3 135 627.7 131 654.8 127C682 123 709 119 736.2 133C763.3 147 790.7 179 818 188C845.3 197 872.7 183 886.3 176L900 169L900 0L886.3 0C872.7 0 845.3 0 818 0C790.7 0 763.3 0 736.2 0C709 0 682 0 654.8 0C627.7 0 600.3 0 573 0C545.7 0 518.3 0 491 0C463.7 0 436.3 0 409 0C381.7 0 354.3 0 327 0C299.7 0 272.3 0 245.2 0C218 0 191 0 163.8 0C136.7 0 109.3 0 82 0C54.7 0 27.3 0 13.7 0L0 0Z" fill="#000f57"></path><path d="M0 211L13.7 203C27.3 195 54.7 179 82 182C109.3 185 136.7 207 163.8 211C191 215 218 201 245.2 196C272.3 191 299.7 195 327 215C354.3 235 381.7 271 409 266C436.3 261 463.7 215 491 199C518.3 183 545.7 197 573 204C600.3 211 627.7 211 654.8 210C682 209 709 207 736.2 214C763.3 221 790.7 237 818 247C845.3 257 872.7 261 886.3 263L900 265L900 167L886.3 174C872.7 181 845.3 195 818 186C790.7 177 763.3 145 736.2 131C709 117 682 121 654.8 125C627.7 129 600.3 133 573 130C545.7 127 518.3 117 491 134C463.7 151 436.3 195 409 199C381.7 203 354.3 167 327 147C299.7 127 272.3 123 245.2 125C218 127 191 135 163.8 132C136.7 129 109.3 115 82 110C54.7 105 27.3 109 13.7 111L0 113Z" fill="#000d65"></path><path d="M0 319L13.7 314C27.3 309 54.7 299 82 296C109.3 293 136.7 297 163.8 292C191 287 218 273 245.2 274C272.3 275 299.7 291 327 321C354.3 351 381.7 395 409 383C436.3 371 463.7 303 491 284C518.3 265 545.7 295 573 316C600.3 337 627.7 349 654.8 349C682 349 709 337 736.2 335C763.3 333 790.7 341 818 347C845.3 353 872.7 357 886.3 359L900 361L900 263L886.3 261C872.7 259 845.3 255 818 245C790.7 235 763.3 219 736.2 212C709 205 682 207 654.8 208C627.7 209 600.3 209 573 202C545.7 195 518.3 181 491 197C463.7 213 436.3 259 409 264C381.7 269 354.3 233 327 213C299.7 193 272.3 189 245.2 194C218 199 191 213 163.8 209C136.7 205 109.3 183 82 180C54.7 177 27.3 193 13.7 201L0 209Z" fill="#020873"></path><path d="M0 367L13.7 369C27.3 371 54.7 375 82 379C109.3 383 136.7 387 163.8 379C191 371 218 351 245.2 355C272.3 359 299.7 387 327 414C354.3 441 381.7 467 409 448C436.3 429 463.7 365 491 352C518.3 339 545.7 377 573 400C600.3 423 627.7 431 654.8 425C682 419 709 399 736.2 391C763.3 383 790.7 387 818 400C845.3 413 872.7 435 886.3 446L900 457L900 359L886.3 357C872.7 355 845.3 351 818 345C790.7 339 763.3 331 736.2 333C709 335 682 347 654.8 347C627.7 347 600.3 335 573 314C545.7 293 518.3 263 491 282C463.7 301 436.3 369 409 381C381.7 393 354.3 349 327 319C299.7 289 272.3 273 245.2 272C218 271 191 285 163.8 290C136.7 295 109.3 291 82 294C54.7 297 27.3 307 13.7 312L0 317Z" fill="#191888"></path><path d="M0 601L13.7 601C27.3 601 54.7 601 82 601C109.3 601 136.7 601 163.8 601C191 601 218 601 245.2 601C272.3 601 299.7 601 327 601C354.3 601 381.7 601 409 601C436.3 601 463.7 601 491 601C518.3 601 545.7 601 573 601C600.3 601 627.7 601 654.8 601C682 601 709 601 736.2 601C763.3 601 790.7 601 818 601C845.3 601 872.7 601 886.3 601L900 601L900 455L886.3 444C872.7 433 845.3 411 818 398C790.7 385 763.3 381 736.2 389C709 397 682 417 654.8 423C627.7 429 600.3 421 573 398C545.7 375 518.3 337 491 350C463.7 363 436.3 427 409 446C381.7 465 354.3 439 327 412C299.7 385 272.3 357 245.2 353C218 349 191 369 163.8 377C136.7 385 109.3 381 82 377C54.7 373 27.3 369 13.7 367L0 365Z" fill="#29279e"></path></svg>